<svg width="1280" height="720" xmlns="http://www.w3.org/2000/svg" xmlns:xlink="http://www.w3.org/1999/xlink" overflow="hidden"><g><rect x="0" y="0" width="1280" height="720" fill="#FFFFFF"/><rect x="0" y="0" width="1280" height="720" stroke="#04222E" stroke-width="2" stroke-miterlimit="8" fill="#04222E"/><path d="M0 0 288.976 0 298.6 5.83694C368.046 52.1791 411 116.2 411 186.916 411 328.347 239.186 443 27.2424 443L0 442.082Z" stroke="#083032" stroke-width="2" stroke-miterlimit="8" fill="#083032" fill-rule="evenodd"/><path d="M1280 720 749.156 720 731.477 710.777C603.905 637.55 525 536.388 525 424.648 525 201.167 840.62 20 1229.96 20L1280 21.4505Z" stroke="#083032" stroke-width="2" stroke-miterlimit="8" fill="#083032" fill-rule="evenodd"/><path d="M40 68.6691C40 48.4173 56.4173 32 76.6691 32L1207.33 32C1227.58 32 1244 48.4173 1244 68.6691L1244 655.331C1244 675.583 1227.58 692 1207.33 692L76.6691 692C56.4173 692 40 675.583 40 655.331Z" stroke="#042433" stroke-width="2" stroke-miterlimit="8" fill="#40605C" fill-rule="evenodd"/><path d="M61 80.1856C61 64.6191 73.6191 52 89.1856 52L1192.81 52C1208.38 52 1221 64.6191 1221 80.1856L1221 643.814C1221 659.381 1208.38 672 1192.81 672L89.1856 672C73.6191 672 61 659.381 61 643.814Z" stroke="#04222E" stroke-width="2" stroke-miterlimit="8" fill="#04222E" fill-rule="evenodd"/><path d="M271 80.1857C271 64.6191 283.619 52 299.186 52L1195.81 52C1211.38 52 1224 64.6191 1224 80.1857L1224 643.814C1224 659.381 1211.38 672 1195.81 672L299.186 672C283.619 672 271 659.381 271 643.814Z" stroke="#083032" stroke-width="2" stroke-miterlimit="8" fill="#083032" fill-rule="evenodd"/></g></svg>